<?xml version="1.0" encoding="UTF-8"?>
<svg width="400px" height="400px" viewBox="0 0 400 400" version="1.1" xmlns="http://www.w3.org/2000/svg" xmlns:xlink="http://www.w3.org/1999/xlink">
    <!-- Generator: Sketch 44.1 (41455) - http://www.bohemiancoding.com/sketch -->
    <title>tape</title>
    <desc>Created with Sketch.</desc>
    <defs></defs>
    <g id="Page-1" stroke="none" stroke-width="1" fill="none" fill-rule="evenodd">
        <g id="taping" transform="translate(-50.000000, -50.000000)" fill="#FFFFFF">
            <path d="M250,450 C139.54305,450 50,360.45695 50,250 C50,139.54305 139.54305,50 250,50 C360.45695,50 450,139.54305 450,250 C450,360.45695 360.45695,450 250,450 Z M291.571429,125 L222.285714,125 C190.685886,125 166.857143,178.523933 166.857143,249.5 C166.857143,279.5958 161.990514,308.905867 153.5044,329.9104 C152.642486,332.0435 152.897457,334.464333 154.186171,336.3678 C155.474886,338.271267 157.625514,339.416667 159.928571,339.416667 L183.383171,339.416667 C193.537686,361.760267 207.2424,374 222.285714,374 L291.571429,374 C323.171257,374 347,320.476067 347,249.5 C347,178.523933 323.171257,125 291.571429,125 Z M187.933857,325.583333 L169.803171,325.583333 C176.787171,304.144433 180.714286,277.050467 180.714286,249.5 C180.714286,184.284133 202.622429,138.833333 222.285714,138.833333 L265.381429,138.833333 C247.699714,159.157267 236.142857,200.084567 236.142857,249.5 C236.142857,277.584433 231.905343,304.979967 224.444657,325.583333 L187.933857,325.583333 Z M291.571429,360.166667 C271.908143,360.166667 250,314.715867 250,249.5 C250,184.284133 271.908143,138.833333 291.571429,138.833333 C311.234714,138.833333 333.142857,184.284133 333.142857,249.5 C333.142857,314.715867 311.234714,360.166667 291.571429,360.166667 Z M291.571429,194.166667 C271.367714,194.166667 270.785714,243.836633 270.785714,249.5 C270.785714,255.163367 271.367714,304.833333 291.571429,304.833333 C311.775143,304.833333 312.357143,255.163367 312.357143,249.5 C312.357143,243.836633 311.772371,194.166667 291.571429,194.166667 Z" id="tape"></path>
        </g>
    </g>
</svg>