<?xml version="1.0" encoding="UTF-8"?>
<svg width="400px" height="400px" viewBox="0 0 400 400" version="1.1" xmlns="http://www.w3.org/2000/svg" xmlns:xlink="http://www.w3.org/1999/xlink">
    <!-- Generator: Sketch 44.1 (41455) - http://www.bohemiancoding.com/sketch -->
    <title>finish</title>
    <desc>Created with Sketch.</desc>
    <defs></defs>
    <g id="Page-1" stroke="none" stroke-width="1" fill="none" fill-rule="evenodd">
        <g id="finishing" transform="translate(-50.000000, -50.000000)" fill="#FFFFFF">
            <path d="M278,234 L223,234 L213,375 L288,375 L278,234 Z M250,450 C139.54305,450 50,360.45695 50,250 C50,139.54305 139.54305,50 250,50 C360.45695,50 450,139.54305 450,250 C450,360.45695 360.45695,450 250,450 Z M278,234 L375,234 L375,125 L125,125 L125,234 L223,234 L213,201 L288,201 L278,234 Z M125,190 L375,190 L375,199.5 L125,199.5 L125,190 Z" id="finish"></path>
        </g>
    </g>
</svg>