<?xml version="1.0" encoding="UTF-8"?>
<svg width="540px" height="100px" viewBox="0 0 540 100" version="1.1" xmlns="http://www.w3.org/2000/svg" xmlns:xlink="http://www.w3.org/1999/xlink">
    <!-- Generator: Sketch 44.1 (41455) - http://www.bohemiancoding.com/sketch -->
    <title>Group</title>
    <desc>Created with Sketch.</desc>
    <defs></defs>
    <g id="Page-1" stroke="none" stroke-width="1" fill="none" fill-rule="evenodd">
        <g id="Group" fill="#F25F5C">
            <path d="M50,100 C22.3857625,100 0,77.6142375 0,50 C0,22.3857625 22.3857625,0 50,0 C77.6142375,0 100,22.3857625 100,50 C100,77.6142375 77.6142375,100 50,100 Z M50,71.3966744 L71.1676641,82.5 L67.125,58.9827791 L84.25,42.3277907 L60.5838321,38.8966744 L50,17.5 L39.4161679,38.8966744 L15.75,42.3277907 L32.875,58.9827791 L28.8323359,82.5 L50,71.3966744 Z" id="star-copy"></path>
            <path d="M160,100 C132.385763,100 110,77.6142375 110,50 C110,22.3857625 132.385763,0 160,0 C187.614237,0 210,22.3857625 210,50 C210,77.6142375 187.614237,100 160,100 Z M160,71.3966744 L181.167664,82.5 L177.125,58.9827791 L194.25,42.3277907 L170.583832,38.8966744 L160,17.5 L149.416168,38.8966744 L125.75,42.3277907 L142.875,58.9827791 L138.832336,82.5 L160,71.3966744 Z" id="star-copy-2"></path>
            <path d="M270,100 C242.385763,100 220,77.6142375 220,50 C220,22.3857625 242.385763,0 270,0 C297.614237,0 320,22.3857625 320,50 C320,77.6142375 297.614237,100 270,100 Z M270,71.3966744 L291.167664,82.5 L287.125,58.9827791 L304.25,42.3277907 L280.583832,38.8966744 L270,17.5 L259.416168,38.8966744 L235.75,42.3277907 L252.875,58.9827791 L248.832336,82.5 L270,71.3966744 Z" id="star-copy-3"></path>
            <path d="M380,100 C352.385763,100 330,77.6142375 330,50 C330,22.3857625 352.385763,0 380,0 C407.614237,0 430,22.3857625 430,50 C430,77.6142375 407.614237,100 380,100 Z M380,71.3966744 L401.167664,82.5 L397.125,58.9827791 L414.25,42.3277907 L390.583832,38.8966744 L380,17.5 L369.416168,38.8966744 L345.75,42.3277907 L362.875,58.9827791 L358.832336,82.5 L380,71.3966744 Z" id="star-copy-4"></path>
            <path d="M490,100 C462.385763,100 440,77.6142375 440,50 C440,22.3857625 462.385763,0 490,0 C517.614237,0 540,22.3857625 540,50 C540,77.6142375 517.614237,100 490,100 Z M490,71.3966744 L511.167664,82.5 L507.125,58.9827791 L524.25,42.3277907 L500.583832,38.8966744 L490,17.5 L479.416168,38.8966744 L455.75,42.3277907 L472.875,58.9827791 L468.832336,82.5 L490,71.3966744 Z" id="star-copy-5"></path>
        </g>
    </g>
</svg>