<?xml version="1.0" encoding="UTF-8"?>
<svg width="400px" height="400px" viewBox="0 0 400 400" version="1.1" xmlns="http://www.w3.org/2000/svg" xmlns:xlink="http://www.w3.org/1999/xlink">
    <!-- Generator: Sketch 44.1 (41455) - http://www.bohemiancoding.com/sketch -->
    <title>texture</title>
    <desc>Created with Sketch.</desc>
    <defs></defs>
    <g id="Page-1" stroke="none" stroke-width="1" fill="none" fill-rule="evenodd">
        <g id="texturing" transform="translate(-50.000000, -50.000000)" fill="#FFFFFF">
            <path d="M250,450 C139.54305,450 50,360.45695 50,250 C50,139.54305 139.54305,50 250,50 C360.45695,50 450,139.54305 450,250 C450,360.45695 360.45695,450 250,450 Z M216,125 L226,230 L216,284 L271,284 L261,230 L271,125 L216,125 Z M125,284 L125,309 L375,309 L375,284 L125,284 Z M125,316.654297 L125,370.054688 C125,372.816111 127.238576,375.054688 130,375.054688 L135,375.054687 C137.761424,375.054687 140,372.816111 140,370.054688 L140,370.054688 L140,316.654297 L125,316.654297 Z M282,316.654297 L282,370.054688 C282,372.816111 284.238576,375.054688 287,375.054688 L292,375.054687 C294.761424,375.054687 297,372.816111 297,370.054688 L297,316.654297 L282,316.654297 Z M203,316.654297 L203,370.054688 C203,372.816111 205.238576,375.054688 208,375.054688 L213,375.054687 C215.761424,375.054687 218,372.816111 218,370.054688 L218,316.654297 L203,316.654297 Z M360,316.654297 L360,370.054688 C360,372.816111 362.238576,375.054688 365,375.054688 L370,375.054687 C372.761424,375.054687 375,372.816111 375,370.054688 L375,316.654297 L360,316.654297 Z M151,316.654297 L151,357.427576 C151,360.189 153.238576,362.427576 156,362.427576 L161,362.427576 C163.761424,362.427576 166,360.189 166,357.427576 L166,357.427576 L166,316.654297 L151,316.654297 Z M308,316.654297 L308,357.427576 C308,360.189 310.238576,362.427576 313,362.427576 L318,362.427576 C320.761424,362.427576 323,360.189 323,357.427576 L323,316.654297 L308,316.654297 Z M229,316.654297 L229,357.427576 C229,360.189 231.238576,362.427576 234,362.427576 L239,362.427576 C241.761424,362.427576 244,360.189 244,357.427576 L244,357.427576 L244,316.654297 L229,316.654297 Z M177,316.654297 L177,370.054688 C177,372.816111 179.238576,375.054688 182,375.054688 L182,375.054688 L187,375.054688 C189.761424,375.054688 192,372.816111 192,370.054688 L192,370.054688 L192,316.654297 L177,316.654297 Z M334,316.654297 L334,370.054688 C334,372.816111 336.238576,375.054688 339,375.054688 L339,375.054688 L344,375.054688 C346.761424,375.054688 349,372.816111 349,370.054688 L349,316.654297 L334,316.654297 Z M256,316.654297 L256,370.054688 C256,372.816111 258.238576,375.054688 261,375.054688 L261,375.054688 L266,375.054688 C268.761424,375.054688 271,372.816111 271,370.054688 L271,316.654297 L256,316.654297 Z" id="texture"></path>
        </g>
    </g>
</svg>